HIERARCHY
ROOT Model_Hips
{
	OFFSET 0.000000 96.915077 0.000000
	CHANNELS 6 Xposition Yposition Zposition Xrotation Yrotation Zrotation
	JOINT Model_Spine
	{
		OFFSET 0.000000 11.137703 -1.289900
		CHANNELS 3 Xrotation Yrotation Zrotation
		JOINT Model_Spine1
		{
			OFFSET 0.000000 12.993942 -1.504922
			CHANNELS 3 Xrotation Yrotation Zrotation
			JOINT Model_Spine2
			{
				OFFSET 0.000000 14.850220 -1.719911
				CHANNELS 3 Xrotation Yrotation Zrotation
				JOINT Model_Neck
				{
					OFFSET 0.000000 16.706543 -1.934903
					CHANNELS 3 Xrotation Yrotation Zrotation
					JOINT Model_Head
					{
						OFFSET 0.000000 10.471298 2.002100
						CHANNELS 3 Xrotation Yrotation Zrotation
						JOINT Model_HeadTop_End
						{
							OFFSET 0.000000 20.842606 3.985100
							CHANNELS 3 Xrotation Yrotation Zrotation
							End Site
							{
								OFFSET 0.000000 21.220154 0.000000
							}
						}
					}
				}
				JOINT Model_LeftShoulder
				{
					OFFSET 7.008500 14.768600 -1.919946
					CHANNELS 3 Xrotation Yrotation Zrotation
					JOINT Model_LeftArm
					{
						OFFSET 14.126271 -3.718048 0.029937
						CHANNELS 3 Xrotation Yrotation Zrotation
						JOINT Model_LeftForeArm
						{
							OFFSET 28.282801 0.000000 0.000000
							CHANNELS 3 Xrotation Yrotation Zrotation
							JOINT Model_LeftHand
							{
								OFFSET 26.204689 0.000000 0.000000
								CHANNELS 3 Xrotation Yrotation Zrotation
								End Site
								{
									OFFSET 26.204704 0.000000 0.000000
								}
							}
						}
					}
				}
				JOINT Model_RightShoulder
				{
					OFFSET -7.008500 14.768555 -1.949840
					CHANNELS 3 Xrotation Yrotation Zrotation
					JOINT Model_RightArm
					{
						OFFSET -14.126281 -3.718018 -0.029932
						CHANNELS 3 Xrotation Yrotation Zrotation
						JOINT Model_RightForeArm
						{
							OFFSET -28.283798 0.000000 -0.000001
							CHANNELS 3 Xrotation Yrotation Zrotation
							JOINT Model_RightHand
							{
								OFFSET -26.204193 0.000000 -0.000001
								CHANNELS 3 Xrotation Yrotation Zrotation
								End Site
								{
									OFFSET -26.204208 0.000000 -0.000001
								}
							}
						}
					}
				}
			}
		}
	}
	JOINT Model_LeftUpLeg
	{
		OFFSET 8.327700 -6.193199 -0.402800
		CHANNELS 3 Xrotation Yrotation Zrotation
		JOINT Model_LeftLeg
		{
			OFFSET 0.735802 -42.108742 -0.610721
			CHANNELS 3 Xrotation Yrotation Zrotation
			JOINT Model_LeftFoot
			{
				OFFSET -0.735806 -36.833748 -0.172876
				CHANNELS 3 Xrotation Yrotation Zrotation
				JOINT Model_LeftToeBase
				{
					OFFSET -0.565857 -11.977769 16.297714
					CHANNELS 3 Xrotation Yrotation Zrotation
					JOINT Model_LeftToe_End
					{
						OFFSET -0.111712 -0.312793 7.857784
						CHANNELS 3 Xrotation Yrotation Zrotation
						End Site
						{
							OFFSET -0.111712 -0.312793 7.857784
						}
					}
				}
			}
		}
	}
	JOINT Model_RightUpLeg
	{
		OFFSET -8.327700 -6.193199 -0.516500
		CHANNELS 3 Xrotation Yrotation Zrotation
		JOINT Model_RightLeg
		{
			OFFSET -0.735785 -42.108738 -0.434061
			CHANNELS 3 Xrotation Yrotation Zrotation
			JOINT Model_RightFoot
			{
				OFFSET 0.735776 -36.833748 -0.021630
				CHANNELS 3 Xrotation Yrotation Zrotation
				JOINT Model_RightToeBase
				{
					OFFSET 0.565817 -11.977745 15.903093
					CHANNELS 3 Xrotation Yrotation Zrotation
					JOINT Model_RightToe_End
					{
						OFFSET 0.111702 -0.312791 7.811342
						CHANNELS 3 Xrotation Yrotation Zrotation
						End Site
						{
							OFFSET 0.111702 -0.312791 7.811342
						}
					}
				}
			}
		}
	}
}
MOTION
Frames: 6
Frame Time: 0.033333
-1.135296 96.503075 0.496532 -0.380448 -0.045959 -1.137119 -0.086215 -0.255464 0.062695 -0.419702 -2.066848 0.010412 -0.423812 -2.060629 0.011954 -1.650386 1.642216 -1.292095 -1.685687 1.535814 -1.489965 -0.000000 0.000000 0.000000 -1.037909 12.072518 1.391820 7.049184 -17.648773 -69.160911 -0.000005 -31.301220 -0.000005 -0.000001 0.000000 0.000000 -0.058830 -2.537108 -5.642108 2.902178 21.478727 77.128648 0.000016 27.253869 0.000004 -0.000001 -0.000001 0.000000 -7.500527 3.105707 3.065503 19.124171 9.490922 1.033563 -10.695378 3.214661 -4.332580 -0.049779 -0.000002 -0.000000 0.000000 -0.000002 0.000000 -7.293250 -12.798826 -4.512384 14.007841 -5.024227 -0.928278 -5.487056 -4.415564 5.356466 -0.114231 0.000013 -0.000002 0.000000 0.000001 0.000000 
-0.757601 96.481575 0.443067 -0.454694 -0.287129 -1.232963 -0.043770 -0.238512 0.044994 -0.353135 -2.045869 -0.013317 -0.356582 -2.040044 -0.010357 -1.628783 1.583256 -1.215104 -1.663534 1.481548 -1.403972 -0.000001 -0.000000 0.000000 -1.018701 12.045022 1.269572 6.925642 -17.996556 -68.982322 -0.000009 -31.152069 -0.000015 -0.000000 -0.000001 0.000000 -0.022078 -2.369989 -5.485720 2.703604 21.326883 77.125533 -0.000007 27.198254 -0.000021 0.000002 -0.000002 0.000001 -7.597843 2.968673 2.911488 19.548249 9.477533 0.949841 -10.975390 3.572554 -4.054616 -0.066536 -0.000003 -0.000001 0.000000 -0.000001 0.000000 -7.236754 -12.964426 -4.659392 13.753815 -4.883274 -0.978126 -5.193792 -4.185473 5.576030 -0.238311 0.000026 -0.000001 -0.000000 0.000001 0.000000 
-0.369596 96.448006 0.379601 -0.546104 -0.532139 -1.320429 0.010994 -0.215189 0.021682 -0.266813 -2.024450 -0.042357 -0.269380 -2.019212 -0.037774 -1.621511 1.516393 -1.130568 -1.655481 1.419899 -1.309682 -0.000000 -0.000000 -0.000000 -0.990262 11.940362 1.138785 6.783314 -18.542908 -68.796473 -0.000013 -30.967292 -0.000011 -0.000000 0.000003 -0.000001 0.034214 -2.116122 -5.285353 2.450687 21.225646 77.072654 -0.000012 27.121605 0.000023 0.000001 0.000001 -0.000000 -7.723314 2.886177 2.741918 20.044129 9.464723 0.884808 -11.291079 3.882362 -3.783693 -0.084451 0.000000 0.000000 0.000000 0.000000 -0.000000 -7.241285 -13.130296 -4.839924 13.631992 -4.733094 -1.028158 -4.960902 -3.946132 5.806449 -0.293444 -0.000003 0.000002 0.000000 -0.000003 0.000000 
0.026785 96.403687 0.309059 -0.650126 -0.772375 -1.404732 0.076890 -0.185327 -0.008529 -0.162722 -2.003168 -0.078554 -0.164115 -1.998689 -0.072153 -1.625550 1.439727 -1.034073 -1.658454 1.349009 -1.202722 -0.000000 0.000000 0.000000 -0.954832 11.745013 1.023222 6.623299 -19.289559 -68.619318 0.000009 -30.755635 0.000019 -0.000001 0.000001 -0.000000 0.118548 -1.741216 -5.016449 2.200544 21.176097 76.912199 0.000005 27.063829 0.000022 0.000001 0.000003 -0.000001 -7.876815 2.870308 2.563016 20.600335 9.451226 0.843795 -11.636453 4.133945 -3.522884 -0.093741 -0.000011 -0.000000 0.000000 0.000000 -0.000000 -7.293738 -13.275987 -5.042410 13.619413 -4.591925 -1.077764 -4.779270 -3.707456 6.047802 -0.283126 -0.000001 -0.000001 0.000000 -0.000001 0.000000 
0.429391 96.349762 0.233508 -0.759658 -1.002037 -1.489743 0.151600 -0.149858 -0.045552 -0.044763 -1.983654 -0.122314 -0.044659 -1.980066 -0.113918 -1.634261 1.353089 -0.924493 -1.665777 1.268686 -1.082044 -0.000000 -0.000000 -0.000000 -0.915234 11.468803 0.934249 6.445219 -20.207067 -68.461097 -0.000010 -30.532523 0.000009 -0.000001 0.000000 0.000000 0.232632 -1.232812 -4.668678 1.997420 21.187001 76.607122 0.000007 27.062266 0.000009 0.000001 -0.000000 0.000002 -8.059241 2.917405 2.382882 21.205839 9.437429 0.820288 -12.005418 4.329834 -3.269240 -0.089501 0.000016 -0.000002 0.000000 0.000000 -0.000000 -7.385974 -13.390430 -5.255815 13.694184 -4.477221 -1.129873 -4.639662 -3.469858 6.301286 -0.213154 -0.000001 -0.000000 0.000000 0.000001 0.000000 
0.836042 96.287521 0.152969 -0.865749 -1.219155 -1.576529 0.232125 -0.110628 -0.087788 0.082144 -1.968017 -0.172581 0.084057 -1.965383 -0.162032 -1.638902 1.258364 -0.803344 -1.668759 1.180700 -0.949316 -0.000000 -0.000000 -0.000000 -0.874239 11.138436 0.873138 6.247851 -21.228399 -68.330934 -0.000014 -30.318783 -0.000016 -0.000002 -0.000001 -0.000000 0.370802 -0.605038 -4.251561 1.859677 21.268087 76.156172 0.000001 27.137899 -0.000006 0.000000 0.000000 -0.000001 -8.272195 3.009413 2.208533 21.847931 9.425170 0.798465 -12.389883 4.484680 -3.014633 -0.072027 -0.000005 0.000002 0.000001 0.000001 -0.000000 -7.517033 -13.480783 -5.473947 13.836660 -4.398211 -1.188067 -4.532693 -3.221272 6.566416 -0.096023 0.000002 0.000001 0.000000 0.000001 0.000000 
